<svg xmlns="http://www.w3.org/2000/svg" xmlns:xlink="http://www.w3.org/1999/xlink" viewBox="0,0,256,256" width="50px" height="50px"><g fill="#ffffff" fill-rule="nonzero" stroke="none" stroke-width="1" stroke-linecap="butt" stroke-linejoin="miter" stroke-miterlimit="10" stroke-dasharray="" stroke-dashoffset="0" font-family="none" font-weight="none" font-size="none" text-anchor="none" style="mix-blend-mode: normal"><g transform="scale(5.12,5.12)"><path d="M25,2c-12.683,0 -23,10.317 -23,23s10.317,23 23,23s23,-10.317 23,-23s-10.317,-23 -23,-23zM37.455,15.983l-4.726,22.248c-0.354,1.677 -1.276,2.092 -2.588,1.3l-7.167,-5.276l-3.465,3.329c-0.382,0.373 -0.698,0.698 -1.423,0.698l0.51,-7.24l13.182,-11.903c0.573,-0.51 -0.126,-0.795 -0.89,-0.285l-16.308,10.27l-6.927,-2.164c-1.505,-0.472 -1.53,-1.505 0.316,-2.23l26.962,-10.428c1.255,-0.465 2.351,0.3 1.96,2.032z"></path></g></g></svg>
