<svg xmlns="http://www.w3.org/2000/svg" xmlns:xlink="http://www.w3.org/1999/xlink" viewBox="0 0 72 16" width="150px" height="50px">
  <path d="M15.8 0c-.4 0-.7.2-.8.5l-2.1 3.3c-.4-.2-.8-.4-1.2-.5-.4-.1-.9-.2-1.4-.2-2.8 0-5 2.4-5 5.2s2.2 5.3 5 5.3c.5 0 .9-.1 1.4-.2.4-.1.8-.3 1.2-.5l.8 1.2c.3.4.8.5 1.2.3.4-.2.5-.8.3-1.2l-3-4.6c-.2-.3-.6-.5-.9-.5-.3 0-.7.2-.8.5l-.4.7c-.5.3-1.1.5-1.7.5-1.7 0-3-1.5-3-3.4s1.3-3.4 3-3.4c.5 0 1 .2 1.5.4.3.1.6.2.9.4L12.4 6c-.5.3-.7.9-.4 1.4.3.5.9.7 1.4.4l2.9-4.7c.3-.4.3-.9 0-1.3-.3-.3-.7-.4-1.1-.4zm-9.5 5.2c-.3-.7-.9-1.2-1.6-1.5-.7-.3-1.5-.4-2.3-.2C1.6 4 0 5.6 0 7.6c0 1.6.8 2.8 2.1 3.4.7.3 1.5.4 2.3.2.7-.1 1.4-.4 1.9-.8.3-.2.4-.7.2-1-.2-.3-.7-.4-1-.2-.4.3-.9.5-1.4.6-.5.1-1.1.1-1.6-.2-.9-.4-1.5-1.3-1.5-2.4 0-1.3.8-2.3 1.9-2.6.5-.1 1.1-.1 1.6.2.4.2.7.6.9 1 .2.4.3.8.2 1.2-.1.5-.4.9-.9 1.1-.4.2-.6.7-.4 1.1.2.4.7.6 1.1.4.8-.3 1.4-1 1.7-1.8.2-.9.2-1.8-.2-2.6zM24.2 4c-.7 0-1.4.2-2 .6-.6.4-1.1.9-1.5 1.6-.4.7-.5 1.5-.5 2.3s.2 1.5.5 2.3c.4.7.9 1.2 1.5 1.6.6.4 1.3.6 2 .6.7 0 1.4-.2 2-.6.6-.4 1.1-.9 1.5-1.6.4-.7.5-1.5.5-2.3s-.2-1.5-.5-2.3c-.4-.7-.9-1.2-1.5-1.6-.6-.4-1.3-.6-2-.6zm-1.1 2.4c.3-.3.7-.4 1.1-.4s.8.2 1.1.4c.3.3.4.7.4 1.1s-.2.8-.4 1.1c-.3.3-.7.4-1.1.4s-.8-.2-1.1-.4c-.3-.3-.4-.7-.4-1.1s.1-.8.4-1.1zm19.8-2.4c-.4 0-.8.2-1.1.4-.3.3-.4.7-.4 1.1v4.1c0 .4-.2.8-.4 1.1-.3.3-.7.4-1.1.4-.4 0-.8-.2-1.1-.4-.3-.3-.4-.7-.4-1.1V5.5c0-.4-.2-.8-.4-1.1-.3-.3-.7-.4-1.1-.4-.4 0-.8.2-1.1.4-.3.3-.4.7-.4 1.1v4.1c0 1.1.4 2 1.1 2.8s1.7 1.1 2.8 1.1c1.1 0 2-.4 2.8-1.1.7-.7 1.1-1.7 1.1-2.8V5.5c0-.4-.2-.8-.4-1.1-.3-.3-.7-.4-1.1-.4zM46.5 4c-1.1 0-2 .4-2.8 1.1-.7.7-1.1 1.7-1.1 2.8v4.1c0 .4.2.8.4 1.1.3.3.7.4 1.1.4.4 0 .8-.2 1.1-.4.3-.3.4-.7.4-1.1V7.9c0-.4.2-.8.4-1.1.3-.3.7-.4 1.1-.4.4 0 .8.2 1.1.4.3.3.4.7.4 1.1v4.1c0 .4.2.8.4 1.1.3.3.7.4 1.1.4.4 0 .8-.2 1.1-.4.3-.3.4-.7.4-1.1V7.9c0-1.1-.4-2-1.1-2.8-.7-.7-1.7-1.1-2.8-1.1zm15.4 0c-.8 0-1.4.6-1.4 1.4v4.1l-2.5-4c-.3-.4-.8-.5-1.2-.3-.4.2-.5.8-.3 1.2l2.8 4.4v2.7c0 .8.6 1.4 1.4 1.4.8 0 1.4-.6 1.4-1.4V5.4c0-.8-.6-1.4-1.4-1.4z" fill="#222222"/>
</svg>
